<svg width="72" height="72" viewBox="0 0 72 72" fill="none" xmlns="http://www.w3.org/2000/svg">
<path d="M19.3059 20.2375C18.2706 22.761 13.9612 24.521 11.6835 26.7986C6.40352 32.0786 7.81411 41.8363 13.2494 43.7128C18.2576 45.421 13.5212 36.3363 18.2576 32.3892C23.2788 28.5457 36.2071 35.2622 25.8412 44.0233C23.4082 45.8092 23.0459 46.4045 21.467 47.9833C12.9776 56.4728 26.747 66.088 36.8282 64.8586C45.7576 63.7716 48.2035 57.9092 49.4459 49.5622C50.5718 41.9528 49.0576 39.2998 50.2353 33.7739C54.0271 23.3045 66.2823 32.221 68.0035 37.2939C68.0423 36.7116 68.0941 36.1422 68.0941 35.5469C68.0941 17.5845 53.5223 2.99982 35.5341 2.99982C25.2329 2.99982 16.0706 7.80099 10.1176 15.2681C16.9894 10.9845 21.4412 15.0739 19.3059 20.2375Z" fill="url(#paint0_radial_527_1930)"/>
<path fill-rule="evenodd" clip-rule="evenodd" d="M49.8154 40.8696C49.7236 38.5718 49.6419 36.5281 50.2353 33.7739C54.0271 23.3045 66.2694 32.221 68.0165 37.3069C67.1106 54.4669 52.9529 68.1198 35.5471 68.1198C17.5718 68.1198 3 53.5351 3 35.5598C3 27.8857 5.66588 20.8457 10.1176 15.281C16.9894 10.9845 21.4412 15.0739 19.3059 20.2375C18.6831 21.7669 16.8357 23.0177 14.9719 24.2796C13.7762 25.0893 12.5737 25.9034 11.6835 26.7986C6.40353 32.0786 7.81412 41.8363 13.2494 43.7128C15.7981 44.5821 15.8231 42.6563 15.8572 40.035C15.8902 37.5053 15.9315 34.3277 18.2576 32.3892C23.2659 28.5457 36.2071 35.2622 25.8412 44.0233C23.9592 45.4048 23.3162 46.0738 22.3907 47.0368C22.1198 47.3187 21.8246 47.6258 21.4671 47.9833C12.9776 56.4728 26.7471 66.088 36.8282 64.8586C45.7576 63.7716 48.2165 57.9222 49.4459 49.5622C50.0106 45.7519 49.9079 43.182 49.8154 40.8696ZM57.3007 24.1716C55.7996 26.2681 52.0725 26.1128 48.9537 23.874C45.8478 21.6222 44.5407 18.1022 46.029 16.0187C47.5302 13.9352 51.2831 14.0775 54.389 16.3422C57.4949 18.5681 58.8149 22.0881 57.3007 24.1716Z" fill="url(#paint1_radial_527_1930)"/>
<defs>
<radialGradient id="paint0_radial_527_1930" cx="0" cy="0" r="1" gradientUnits="userSpaceOnUse" gradientTransform="translate(43.2039 21.4911) scale(43.2406 44.8646)">
<stop stop-color="#EF402F"/>
<stop offset="0.2057" stop-color="#E0382B"/>
<stop offset="0.5402" stop-color="#C42225"/>
<stop offset="0.6" stop-color="#BE1E24"/>
<stop offset="1" stop-color="#7A1113"/>
</radialGradient>
<radialGradient id="paint1_radial_527_1930" cx="0" cy="0" r="1" gradientUnits="userSpaceOnUse" gradientTransform="translate(46.5225 19.6762) scale(42.1876 35.4543)">
<stop offset="0.005618" stop-color="#E6E7E8"/>
<stop offset="1" stop-color="#8A9297"/>
</radialGradient>
</defs>
</svg>
