<svg width="72" height="72" viewBox="0 0 72 72" fill="none" xmlns="http://www.w3.org/2000/svg">
<path fill-rule="evenodd" clip-rule="evenodd" d="M18.7849 29.6673C16.2025 29.8257 13.9994 27.8817 13.8338 25.3185C13.6802 22.7529 15.6145 20.5353 18.2017 20.3721C20.7577 20.2089 22.9561 22.1673 23.1193 24.7305C23.2849 27.2961 21.3433 29.5089 18.7849 29.6673ZM61.6699 22.7575C58.6555 19.7071 53.6731 20.2351 50.7355 23.3479C46.9123 27.3607 43.9387 28.8607 40.3939 28.7119C35.4499 28.4959 33.0091 24.6703 30.4723 19.8463C27.8347 14.8087 23.7763 12.0007 18.7195 12.0007C10.7659 12.0007 5.99951 18.4399 5.99951 25.6207C5.99951 36.6703 13.7683 43.2751 19.1467 46.0591C23.6155 48.3895 28.5859 49.3591 33.0091 49.4719C32.7475 52.1119 31.9699 55.5991 31.1131 58.0687H31.5667H35.6947H39.8179H40.2091C39.3139 55.5991 38.5195 51.8239 38.2747 49.1767C51.6019 47.4463 57.9331 41.3959 61.3987 35.6335C62.9539 33.1039 63.7843 30.4783 63.7747 28.1191C63.7627 26.0527 63.1051 24.1735 61.6699 22.7575Z" fill="#6EB329"/>
</svg>
