<svg width="72" height="72" viewBox="0 0 72 72" fill="none" xmlns="http://www.w3.org/2000/svg">
<path fill-rule="evenodd" clip-rule="evenodd" d="M70.9897 27C69.8275 31.8013 65.6655 34.4191 63.219 35.8166L63.1128 35.6746C64.1155 34.8579 67.56 32.3167 68.6609 28.1044L70.9897 27Z" fill="#EF8200"/>
<path fill-rule="evenodd" clip-rule="evenodd" d="M44.4006 39.4265C44.2261 39.2925 44.022 39.1678 43.7863 39.0623C43.7786 39.0573 43.2614 38.8011 43.2614 38.8011L43.2572 38.7984L43.2476 38.7934C43.0786 38.6967 42.6834 38.4663 42.6834 38.0804C42.6834 37.8913 42.7575 37.7295 42.8913 37.6158C43.0546 37.4808 43.308 37.4303 43.5785 37.4786C43.9198 37.5317 44.3117 37.7536 44.742 38.1225L44.9043 37.8098L44.9058 37.807L44.9068 37.8049C45.1122 37.4091 45.3689 36.9146 45.4783 36.707C44.9847 36.301 44.5053 36.0837 43.7916 35.9577C42.9093 35.826 42.0586 36.014 41.461 36.4666C40.9587 36.8522 40.6456 37.4162 40.561 38.0979C40.5477 38.2159 40.5439 38.3258 40.5439 38.4345C40.5439 38.7556 40.6 39.0353 40.7117 39.28C40.7546 39.2832 40.7966 39.2872 40.8392 39.2925C41.7398 39.3586 42.9777 39.4144 44.4006 39.4265ZM4.64231 40.3578C4.64231 40.3578 6.30645 36.5554 6.43492 36.2243H8.93877C8.93952 36.4768 8.85694 38.1473 8.77421 39.821L8.7742 39.8212L8.77419 39.8213C8.69115 41.5013 8.60794 43.1844 8.6087 43.4399H6.80857L7.10709 38.3876C7.10709 38.3876 5.07907 43.1195 4.94458 43.4399H3.52211L2.88401 38.3876C2.87621 38.4239 2.85267 38.5395 2.81712 38.7142L2.81703 38.7147L2.81699 38.7148L2.81699 38.7149C2.62853 39.6409 2.10309 42.2229 1.79411 43.4399H0C0.104923 43.0778 0.583383 40.9637 1.00202 39.1139L1.00203 39.1138C1.32881 37.6699 1.61914 36.387 1.66689 36.2243H4.07633L4.64231 40.3578ZM10.0638 39.3689C10.2829 37.8405 10.4858 36.4251 10.515 36.2243H12.5032C12.4478 36.6063 12.0396 39.4533 11.7517 41.4611L11.7507 41.4681L11.4679 43.4404H9.47942C9.52493 43.1277 9.80559 41.1699 10.0638 39.3689ZM26.385 39.0276L26.3865 39.0171L26.3908 38.987C26.588 37.6114 26.7605 36.4082 26.787 36.2243H31.3712C31.3296 36.5294 31.2496 37.0833 31.1935 37.4719L31.1934 37.4721L31.1491 37.7798H28.3995L28.2112 39.0953H30.7734C30.7441 39.2982 30.7016 39.5959 30.6611 39.8791C30.623 40.1457 30.5867 40.3995 30.5651 40.5491H28.0034L27.8118 41.8834H30.6354C30.6066 42.0822 30.5633 42.386 30.5213 42.6809L30.5213 42.6811C30.478 42.985 30.4361 43.2795 30.4125 43.4404H25.752C25.7997 43.1105 26.1096 40.9488 26.3785 39.0726L26.3831 39.0407L26.385 39.0276ZM22.7286 37.812L21.5889 40.4912H23.0993L22.7286 37.812ZM23.4646 43.4398C23.4183 43.1571 23.2905 41.98 23.2905 41.98L21.0444 41.9828C21.0444 41.9828 20.5553 43.1986 20.4531 43.4398H18.5153C18.6989 43.0411 19.6501 40.9036 20.4723 39.0558L20.473 39.0543C21.1125 37.6171 21.6739 36.3556 21.7351 36.2245H24.147C24.1843 36.4311 24.4549 38.034 24.7329 39.6814L24.7331 39.6827L24.7331 39.6828L24.7335 39.6848C25.0209 41.3879 25.3162 43.1376 25.3699 43.4398H23.4646ZM15.2754 37.5791H15.7189C16.0222 37.5791 16.3598 37.6104 16.5706 37.8529C16.7204 38.0254 16.774 38.2676 16.7282 38.5779C16.7282 38.5779 16.6693 39.1278 16.3054 39.3021C16.3054 39.3021 16.0555 39.4654 15.6413 39.4762H15.0056C15.1552 38.4255 15.2754 37.5791 15.2754 37.5791ZM14.9402 39.9356L14.7437 39.4762H15.0056L14.9402 39.9356ZM14.9402 39.9356C14.7221 41.4669 14.4719 43.2188 14.4374 43.4401H12.6288C12.7109 42.8621 13.6007 36.6613 13.6636 36.2245H16.3896C16.9986 36.2245 17.8198 36.339 18.2981 36.8909C18.5633 37.1967 18.6953 37.6047 18.6953 38.1126C18.6953 38.2676 18.6823 38.4306 18.6588 38.6024C18.4837 39.9735 17.793 40.2357 16.9095 40.4L18.3687 43.4401H16.4386L14.9402 39.9356ZM57.2727 37.6249C57.3452 37.1323 57.4433 36.4663 57.4805 36.2243H61.8969C60.3257 36.9864 58.6315 37.5489 57.2261 37.9411L57.2727 37.6249ZM56.5493 37.7801H53.8008L53.6591 38.7523C53.0475 38.8625 52.4177 38.9542 51.7841 39.0343L51.9925 37.5818C52.0956 36.8645 52.1708 36.3409 52.1868 36.2247H56.7727L56.6834 36.846L56.6823 36.8537L56.6786 36.8794C56.6282 37.2295 56.5759 37.5934 56.5493 37.7801ZM58.2183 38.0183C58.0571 38.0735 57.8913 38.1246 57.7216 38.1768L57.5877 38.2181C57.5608 38.2281 57.5336 38.2368 57.5043 38.2462L57.484 38.2527C57.3951 38.2787 57.3052 38.3055 57.2121 38.3346C57.1904 38.3395 57.1693 38.3458 57.1486 38.352C57.1323 38.3569 57.1164 38.3617 57.1006 38.3656L57.0903 38.3687C56.7954 38.4551 56.4964 38.5427 56.1815 38.6283C56.1339 38.6401 56.0883 38.6529 56.0418 38.666L56.0295 38.6694C55.9809 38.6814 55.9315 38.6942 55.8818 38.7071L55.8816 38.7071L55.8815 38.7072C55.8392 38.7181 55.7967 38.7291 55.754 38.7398C55.733 38.7452 55.7122 38.751 55.6913 38.7567L55.6913 38.7567C55.6545 38.7669 55.6175 38.7771 55.5785 38.7859C55.539 38.7964 55.4993 38.8069 55.4594 38.8174C55.4092 38.8306 55.3586 38.8439 55.3075 38.8577C55.2414 38.872 55.173 38.8883 55.1074 38.9063C55.0446 38.9212 54.9815 38.9363 54.918 38.9516L54.9173 38.9518C54.8288 38.973 54.7394 38.9945 54.6481 39.0158C54.6012 39.0271 54.554 39.0378 54.506 39.0488L54.5059 39.0488C54.4753 39.0558 54.4444 39.0628 54.413 39.0701C54.3972 39.0735 54.3822 39.0772 54.3673 39.0808L54.3673 39.0808C54.3471 39.0857 54.3271 39.0906 54.3058 39.0947H54.3028C53.4874 39.2782 52.6198 39.4543 51.7003 39.611C51.6835 39.6143 51.6654 39.6168 51.6459 39.6183C51.5043 39.6443 51.3597 39.6683 51.2146 39.6923L51.1265 39.707L51.0968 39.7104C51.0693 39.7136 51.0431 39.7166 51.0148 39.7217C50.8345 39.7533 50.6519 39.7801 50.4676 39.8069C50.4548 39.8089 50.4436 39.8106 50.4333 39.8106C49.4448 39.9551 48.4043 40.0794 47.3136 40.173H47.2976C47.1362 40.1886 46.9736 40.2023 46.8089 40.2162L46.7947 40.2174C46.7836 40.2174 46.7704 40.2187 46.7567 40.2202L46.7566 40.2202L46.7451 40.2214L46.6911 40.2252L46.691 40.2252C46.5372 40.2363 46.3822 40.2474 46.2262 40.2559C46.216 40.2579 46.2015 40.2604 46.1907 40.2604L46.0618 40.2688C45.925 40.2776 45.789 40.2865 45.6515 40.2937C45.6412 40.2957 45.633 40.2957 45.6252 40.2957C45.5092 40.3016 45.3931 40.308 45.2759 40.3144L45.07 40.3255H45.0567C44.1406 40.3701 43.1917 40.3947 42.212 40.3947H42.1434C41.922 40.3922 41.6989 40.3907 41.47 40.3907C41.4329 40.3907 41.3913 40.3907 41.3505 40.3879C40.5569 40.3756 39.7467 40.3483 38.9143 40.3035H38.9015C37.6464 40.2384 36.3519 40.1335 35.0155 39.9804L36.5552 38.5342C36.5552 38.5342 37.4488 38.8029 38.6874 39.0248C38.5786 38.3869 38.4767 37.7843 38.3949 37.3011C38.2978 36.7273 38.2291 36.3217 38.2113 36.2247H35.7981C35.7375 36.3562 35.1708 37.6297 34.5274 39.0757C33.7072 40.9189 32.7622 43.0427 32.5811 43.4399H34.5169C34.6188 43.1983 35.2697 41.6476 35.2697 41.6476L37.289 41.6456C37.289 41.6456 37.4841 43.1547 37.5281 43.4399H39.4337C39.415 43.3314 39.3653 43.0373 39.2957 42.6261C39.216 42.1547 39.1102 41.5296 38.9954 40.854C40.3563 40.9306 41.7169 40.9436 42.9879 40.9273C43.0532 41.0338 43.0865 41.1487 43.0865 41.2722C43.0865 41.3173 43.0835 41.3606 43.0748 41.4064C43.0455 41.5679 42.9623 41.7007 42.8331 41.7926C42.5676 41.9784 42.192 41.9376 41.9303 41.8915C41.3155 41.7853 40.8269 41.3185 40.4317 40.9306C40.1825 41.3345 39.6636 42.1813 39.4978 42.4555C40.2246 43.1176 41.0092 43.5223 41.8411 43.6383C42.6821 43.7645 43.516 43.5747 44.1339 43.1191C44.6743 42.7194 45.0129 42.1379 45.1166 41.4377C45.1506 41.2354 45.1644 41.0453 45.1546 40.8637C46.5173 40.8061 47.6477 40.7212 48.374 40.6589C48.6099 40.8317 48.7326 41.0365 48.7326 41.2722C48.7326 41.3173 48.7286 41.3606 48.7223 41.4064C48.693 41.5679 48.6074 41.7007 48.4754 41.7926C48.2137 41.9784 47.8375 41.9376 47.5788 41.8915C46.9615 41.7853 46.4699 41.3185 46.0757 40.9306L45.8137 41.3592C45.5627 41.7698 45.2635 42.2592 45.1424 42.4555C45.8706 43.1176 46.6562 43.5223 47.4877 43.6383C48.3286 43.7645 49.1611 43.5747 49.7769 43.1191C50.3179 42.7194 50.6592 42.1379 50.7654 41.4377C50.8325 41.047 50.815 40.6959 50.7213 40.3804C51.0311 40.3396 51.3251 40.2937 51.6068 40.2464C51.3915 41.7613 51.1891 43.1777 51.1513 43.4399H55.8141C55.8582 43.1224 55.9772 42.2874 56.0353 41.8817H53.2116L53.4027 40.5482H55.9639C55.9859 40.4023 56.0213 40.1571 56.0588 39.8975L56.0589 39.8968L56.059 39.8962C56.0925 39.6647 56.1276 39.4219 56.1562 39.2279C56.5038 39.1182 56.6804 39.0513 56.6804 39.0513C56.6804 39.0513 57.5449 38.7901 58.6688 38.3787C58.5063 39.5081 58.011 42.9639 57.9433 43.4399H59.9596C60.0212 43.0165 60.7412 38.0183 60.7412 38.0183H62.2012C62.2418 37.7075 62.3828 36.717 62.4484 36.2685C61.6896 36.6892 60.2604 37.3496 58.2183 38.0183ZM48.9085 38.7998C48.9085 38.7998 49.4226 39.0582 49.4339 39.0628C49.5561 39.1166 49.6658 39.1787 49.7715 39.2396C48.6317 39.3327 47.4988 39.3863 46.4247 39.4104C46.2676 39.1366 46.187 38.8123 46.187 38.4352C46.187 38.3272 46.1943 38.215 46.2075 38.0986C46.2907 37.4171 46.6037 36.8509 47.1081 36.467C47.7044 36.0142 48.5539 35.8291 49.4374 35.9574C50.1499 36.0846 50.6285 36.3 51.1238 36.7074C51.0291 36.8864 50.826 37.2772 50.6401 37.6351C50.5458 37.8165 50.4559 37.9896 50.3868 38.1221C49.9558 37.7545 49.5644 37.5301 49.2205 37.477C48.9531 37.4297 48.7011 37.4798 48.5363 37.6152C48.4024 37.7282 48.329 37.892 48.327 38.0803C48.327 38.467 48.7237 38.6969 48.8955 38.793L48.9012 38.7975L48.9085 38.7998Z" fill="#003F7E"/>
</svg>
