<svg width="72" height="72" viewBox="0 0 72 72" fill="none" xmlns="http://www.w3.org/2000/svg">
<path fill-rule="evenodd" clip-rule="evenodd" d="M57.2931 39.8845L54.2955 37.9242C52.3383 39.3054 49.6549 39.4385 47.529 38.0465C47.529 38.0465 38.4013 32.0837 37.5589 31.5247C36.554 30.8527 35.3014 30.8109 34.2299 31.5077C33.1615 32.2029 24.2227 38.0465 24.2227 38.0465C22.0952 39.4385 19.4165 39.3054 17.4547 37.9242L14.4616 39.8845C11.9502 41.5273 11.2441 44.892 12.8854 47.4019C14.5267 49.9149 17.8929 50.621 20.4044 48.9766L34.3414 39.8674C35.4392 39.1908 36.3326 39.1908 37.4165 39.8643L51.3473 48.9766C53.8604 50.621 57.225 49.9149 58.8678 47.4019C60.506 44.892 59.8031 41.5273 57.2931 39.8845Z" fill="#7CB142"/>
<path fill-rule="evenodd" clip-rule="evenodd" d="M34.8614 23.014C35.1679 22.8251 35.5303 22.7183 35.9174 22.7183C36.2967 22.7183 36.6513 22.822 36.9579 23.0047C37.5292 23.3469 43.5989 27.3681 43.5989 27.3681C45.6118 28.6826 48.1992 28.4163 49.9086 26.8803L53.3537 29.1379C55.489 30.5299 56.0882 33.3928 54.6931 35.5281C53.2965 37.6617 50.4366 38.2625 48.3014 36.8659C48.3014 36.8659 38.4041 30.4122 37.4425 29.861C36.481 29.3066 35.3445 29.2834 34.3566 29.8718C33.5545 30.3472 23.4513 36.8659 23.4513 36.8659C21.3362 38.1433 18.4546 37.6617 17.0596 35.5281C15.6645 33.3928 16.2637 30.5299 18.3974 29.1379L21.8456 26.8803C23.5535 28.4163 26.1393 28.6826 28.1553 27.3681C28.1553 27.3681 34.2621 23.3779 34.8614 23.014Z" fill="#528A3D"/>
<path fill-rule="evenodd" clip-rule="evenodd" d="M37.0722 21.3765L44.3728 26.1827C46.1209 27.3238 48.4637 26.8314 49.6064 25.0849C50.7475 23.3398 50.2567 20.9956 48.5101 19.8513L37.0195 12.3339C36.2902 11.8895 35.4649 11.8895 34.7558 12.3277L23.2451 19.8513C21.4954 20.9956 21.0046 23.3398 22.1457 25.0849C23.2915 26.8314 25.6311 27.3238 27.3793 26.1827L34.7852 21.3734C35.132 21.1442 35.4944 20.9832 35.9264 20.9832C36.3584 20.9832 36.7284 21.1442 37.0722 21.3765Z" fill="#004711"/>
<path fill-rule="evenodd" clip-rule="evenodd" d="M43.7159 55.0584L37.7438 45.2897C37.2699 44.483 36.5794 44.0726 35.8764 44.051C35.1734 44.0726 34.4813 44.483 34.0075 45.2897L28.0354 55.0584C27.2612 56.2569 27.4439 58.1692 29.5807 58.1692H42.1706C44.3058 58.1692 44.4901 56.2569 43.7159 55.0584Z" fill="#004711"/>
</svg>
