<svg width="72" height="72" viewBox="0 0 72 72" fill="none" xmlns="http://www.w3.org/2000/svg">
<path fill-rule="evenodd" clip-rule="evenodd" d="M12.6886 47.804C10.8601 46.9448 9.35311 46.2506 9.35311 44.8511C9.35311 43.7805 10.2111 43.0019 11.899 43.0019C12.5187 43.0019 13.032 43.0691 13.5576 43.1694C13.8313 43.2146 14.1271 43.2561 14.3691 43.2561C15.8443 43.2561 16.6779 42.3774 17.2316 40.7041L17.4613 40.0172C17.2254 39.9231 14.8128 38.8635 11.6656 38.8635C6.663 38.8635 4.01811 42.0755 4.02178 45.4121C4.02178 47.0915 4.54856 48.3137 5.37233 49.2719C6.43689 50.5076 7.94756 51.3179 9.36044 52.006C11.4211 53.0205 13.2826 53.7685 13.2826 55.2694C13.2826 56.6016 11.9076 57.3618 10.0657 57.3618C7.55156 57.3618 5.35033 55.9196 5.07167 55.7448L3 59.6278C3.36667 59.8356 6.02867 61.5296 10.4189 61.5296C15.0866 61.5284 18.6212 58.8431 18.6212 54.7157C18.6212 50.6139 15.3432 49.0898 12.6886 47.804Z" fill="#E21837"/>
<path fill-rule="evenodd" clip-rule="evenodd" d="M30.956 49.7173L39.4297 39.315H33.3931L26.6367 48.2947H26.5352V39.315H21.5596V61.3517H21.8553C24.0052 61.3517 26.567 60.3543 26.567 56.7598V51.6973H26.6721L33.5593 61.0803H39.8892L30.956 49.7173Z" fill="#E21837"/>
<path fill-rule="evenodd" clip-rule="evenodd" d="M39.7129 15.709C37.9578 16.039 35.3606 17.6291 35.3703 20.4512C35.3752 23.0057 37.4665 24.5542 37.4726 27.9055C37.4811 30.4282 36.0951 32.1259 34.5942 33.067C35.2005 33.0108 35.8666 32.9765 36.595 32.9765C38.1301 32.9717 39.0517 33.1171 39.1091 33.1293L46.9692 23.4677C44.7839 20.1958 42.2343 17.6572 39.7129 15.709Z" fill="#E21837"/>
<path fill-rule="evenodd" clip-rule="evenodd" d="M46.3152 41.7883C47.3027 40.2508 47.4311 37.7904 47.513 35.2861C47.6059 32.9529 48.0923 31.1941 51.2114 31.1819C51.902 31.1782 52.5632 31.276 53.7561 31.2723C58.326 31.2528 61.307 29.6749 63.1647 28.6421C59.3722 26.2221 53.8343 23.7471 46.9691 23.4672C46.523 24.7371 43.0421 34.4244 42.7769 35.2054C42.8196 35.2531 43.4283 35.9376 44.1897 37.2722C45.313 39.1043 45.9131 40.6566 46.3152 41.7883Z" fill="#E21837"/>
<mask id="mask0_527_2041" style="mask-type:luminance" maskUnits="userSpaceOnUse" x="26" y="9" width="13" height="25">
<path fill-rule="evenodd" clip-rule="evenodd" d="M26.6157 9.93604H38.6009V33.8739H26.6157V9.93604Z" fill="white"/>
</mask>
<g mask="url(#mask0_527_2041)">
<path fill-rule="evenodd" clip-rule="evenodd" d="M29.7116 33.8743C29.3181 33.8743 29.1201 33.6115 29.0675 33.1556C29.0174 32.6973 27.0496 14.6952 26.7563 11.966C26.7148 11.5663 26.6158 10.8366 26.6158 10.5751C26.6121 10.1546 26.8871 9.93586 27.211 9.93586C28.1411 9.93341 33.2133 11.1251 38.6009 14.9042C37.0499 15.3405 34.24 16.9587 34.2522 20.3076C34.2656 23.2654 36.3813 24.8971 36.3935 27.8732C36.4082 32.7034 30.8654 33.8719 29.7116 33.8743Z" fill="#F37725"/>
</g>
<path fill-rule="evenodd" clip-rule="evenodd" d="M46.7651 43.0691C46.8495 43.2977 46.9289 43.4896 47.0108 43.6191C47.133 43.833 47.2931 43.9284 47.496 43.9284C47.6195 43.9284 47.7722 43.8807 47.9421 43.8037C48.3577 43.613 64.7685 35.9644 67.2435 34.8204C67.6065 34.6492 68.2824 34.3449 68.5121 34.2129C68.7407 34.0809 68.8458 33.8841 68.8458 33.6874C68.8458 33.5786 68.8128 33.4674 68.7541 33.3647C68.4461 32.8648 66.8536 31.1781 64.1977 29.335C62.0906 30.4937 58.7991 32.294 53.9017 32.3124C52.699 32.3148 52.4314 32.2292 51.6125 32.2378C49.2218 32.2451 48.6266 33.2657 48.5361 35.3655C48.5215 35.7615 48.5202 36.2944 48.4921 36.881C48.4176 38.7596 48.1976 41.3434 46.7651 43.0691Z" fill="#F37725"/>
</svg>
