<svg width="72" height="72" viewBox="0 0 72 72" fill="none" xmlns="http://www.w3.org/2000/svg">
<path fill-rule="evenodd" clip-rule="evenodd" d="M69 37.5001L36 15.0001L3 37.5001L36 60.0001L69 37.5001ZM8.45424 37.5002L35.9997 18.7189L63.5447 37.5002L35.9997 56.2811L8.45424 37.5002ZM35.8453 22.6992L40.9099 26.1528L31.8123 32.3556L35.5126 34.8786L39.1105 32.4253L37.2172 31.1343L43.0611 27.1499L52.2475 33.4136L52.2934 33.3824L58.0663 37.3183L35.7507 52.5337L29.978 48.5983L46.4043 37.3983L44.1751 35.8784L27.904 46.9717L14.0748 37.5429L35.8453 22.6992ZM27.5268 35.2776L24.1942 37.5492L27.8946 40.0723L31.2271 37.8007L27.5268 35.2776ZM38.7752 31.134L43.0608 28.2121L52.249 34.4772L52.2943 34.4455L56.5075 37.3184L35.7505 51.4709L31.536 48.598L47.9629 37.3986L38.7752 31.134Z" fill="#22419B"/>
</svg>
