<svg width="72" height="72" viewBox="0 0 72 72" fill="none" xmlns="http://www.w3.org/2000/svg">
<path fill-rule="evenodd" clip-rule="evenodd" d="M67.1248 40.1347C66.1698 30.7491 55.4797 23.0601 43.26 22.9611C31.0384 22.8601 21.909 30.3841 22.868 39.7736C23.8288 49.1553 34.5111 56.8443 46.7347 56.9453C58.9583 57.0481 68.0857 49.5183 67.1248 40.1347ZM26.7001 37.7838C25.8635 30.2191 33.8029 24.1451 44.4211 24.2305C55.0335 24.314 64.3221 30.5122 65.1529 38.0731C65.9837 45.6398 58.054 51.7137 47.4319 51.6341C36.8195 51.5507 27.5329 45.3544 26.7001 37.7838Z" fill="#F8A883"/>
<path fill-rule="evenodd" clip-rule="evenodd" d="M26.3732 36.4894C19.3792 43.8038 19.2646 55.0452 26.117 61.6102C32.9693 68.1733 44.2049 67.5638 51.2028 60.2553C58.2007 52.9487 58.3094 41.7034 51.4571 35.1345C44.6086 28.5714 33.375 29.179 26.3732 36.4894ZM48.6749 57.1418C42.6553 63.4215 32.9999 63.9475 27.1026 58.3065C21.1995 52.6557 21.3004 42.977 27.3219 36.6895C33.3415 30.4001 43.0047 29.8857 48.8981 35.5248C54.7993 41.1717 54.7003 50.8465 48.6749 57.1418Z" fill="#F37C4B"/>
<mask id="mask0_527_2017" style="mask-type:luminance" maskUnits="userSpaceOnUse" x="2" y="7" width="59" height="49">
<path fill-rule="evenodd" clip-rule="evenodd" d="M2.99951 7.94171H60.0418V55.3444H2.99951V7.94171Z" fill="white"/>
</mask>
<g mask="url(#mask0_527_2017)">
<path fill-rule="evenodd" clip-rule="evenodd" d="M15.3878 16.9828C2.40323 27.2652 -0.904535 42.1715 7.9977 50.2662C16.9116 58.359 34.6636 56.5906 47.6559 46.3062C60.6424 36.0219 63.9463 21.1175 55.0382 13.0248C46.1282 4.92228 28.3762 6.69846 15.3878 16.9828ZM27.0153 12.9549C39.5321 8.26118 51.9129 13.0112 54.6616 23.5557C57.4142 34.0982 49.5 46.4577 36.9833 51.1476C24.4627 55.8433 12.0877 51.0894 9.32929 40.5468C6.5767 29.9985 14.4948 17.6448 27.0153 12.9549Z" fill="#F05A28"/>
</g>
</svg>
