<svg width="72" height="72" viewBox="0 0 72 72" fill="none" xmlns="http://www.w3.org/2000/svg">
<path fill-rule="evenodd" clip-rule="evenodd" d="M33.3495 42.1088C33.5276 42.1088 33.8409 42.2579 34.2691 42.7227C36.4872 45.1341 38.9807 47.0402 41.0775 48.1909C41.3781 48.3577 41.5461 48.4802 41.5461 48.6394C41.5461 48.7581 41.5297 48.8794 41.267 48.8794C40.7958 48.8794 38.152 48.3577 37.4535 48.0292C36.7512 47.7008 35.2404 46.473 33.4379 43.3682C33.2346 43.0183 33.0186 42.7151 33.0186 42.4335C33.0186 42.153 33.275 42.1088 33.3495 42.1088Z" fill="#6C9BD2"/>
<path fill-rule="evenodd" clip-rule="evenodd" d="M35.5051 34.701C39.7746 34.101 39.3363 33.2344 39.3363 33.2344C39.3363 33.2344 41.0819 33.2193 41.0819 34.5835C41.0819 35.2239 40.2142 35.8441 39.1342 36.074C38.3497 36.2382 37.0171 36.4391 34.7826 36.7485C34.6727 37.0603 34.5592 37.3811 34.4434 37.7083C34.2875 38.1487 34.1274 38.6009 33.9666 39.0588C34.3986 39.0033 36.4247 38.7481 37.5729 38.7481C38.7577 38.7481 39.0192 39.2887 39.0192 39.8799C39.0192 41.3755 37.1283 43.5052 36.0445 44.3224C35.0579 45.0677 33.0672 46.4319 32.6213 46.4319C32.4584 46.4319 32.1956 46.2412 32.5139 45.9999C35.4015 43.802 36.892 42.0197 36.892 41.3982C36.892 41.1304 36.6331 40.9043 36.1304 40.9043C35.5998 40.9043 33.6925 41.1974 33.1758 41.301L32.114 44.308L32.1103 44.3186L32.1095 44.3208C31.5514 45.9016 31.1408 47.0647 31.0588 47.2946C30.7544 48.1536 28.9304 48.8925 28.1194 48.8925C27.3097 48.8925 27.455 48.2458 27.6344 47.8428L32.3548 37.053C32.0957 37.0789 31.8802 37.0979 31.6363 37.1194C31.4653 37.1345 31.2802 37.1509 31.0563 37.1717C30.1973 37.2563 28.8533 36.482 28.8533 35.7191C28.8533 35.282 29.0516 34.8525 29.8259 34.9296C30.383 34.9852 31.6171 35.0433 33.2819 34.9321L34.5514 32.0268C34.7346 31.6012 35.0554 31.2626 35.4975 31.2626C35.9384 31.2626 36.5497 31.7262 36.2782 32.5144C36.2782 32.5144 35.9699 33.3822 35.5051 34.701ZM0 39.9893H1.35663V43.5804C1.35663 44.9775 2.15116 45.8718 3.59116 45.8718C4.14189 45.8718 4.56632 45.8187 4.95032 45.705L4.896 44.2537C4.70274 44.3762 4.38947 44.4444 4.05853 44.4444C3.35874 44.4444 3.19579 43.8848 3.19579 43.2785V39.9893H4.93516V38.644H3.19579V36.8554H1.35663V38.644H0V39.9893ZM6.33472 38.6435H7.96672V40.249H7.99577C8.07788 39.5896 8.83072 38.478 9.92714 38.478C10.1065 38.478 10.2985 38.478 10.4918 38.5349V40.3867C10.3276 40.2907 9.99788 40.2351 9.66693 40.2351C8.17387 40.2351 8.17387 42.0995 8.17387 43.1138V45.7058H6.33472V38.6435ZM16.3734 45.7056H18.1141V38.6432H16.2774V42.1005C16.2774 43.0037 15.9882 44.4449 14.6581 44.4449C13.4783 44.4449 13.4644 43.279 13.4644 42.4138V38.6432H11.629V43.1009C11.629 44.6912 12.3553 45.8723 14.0278 45.8723C14.9878 45.8723 15.7848 45.4327 16.3457 44.7481H16.3734V45.7056ZM24.1674 41.483C24.1143 40.5925 23.7013 39.8232 22.6756 39.8232C21.6449 39.8232 21.1244 40.5369 21.0411 41.483H24.1674ZM25.402 45.3079C24.7287 45.678 23.962 45.8726 22.9742 45.8726C20.6424 45.8726 19.2857 44.5286 19.2857 42.2107C19.2857 40.1656 20.3683 38.478 22.5624 38.478C25.1834 38.478 25.9236 40.2755 25.9236 42.7437H21.0403C21.1236 43.8844 21.9194 44.5286 23.0563 44.5286C23.9493 44.5286 24.7161 44.1976 25.402 43.8149V45.3079ZM41.9375 38.7485H40.3055V45.8096H42.1434V43.2163C42.1434 42.2007 42.1434 40.3388 43.6378 40.3388C43.9662 40.3388 44.2959 40.3919 44.4613 40.4891V38.6373C44.2681 38.583 44.0773 38.583 43.898 38.583C42.8015 38.583 42.0474 39.6921 41.9641 40.3515H41.9375V38.7485ZM45.5259 45.8097H47.3663V38.7486H45.5259V45.8097ZM45.5262 37.5665H47.3666V35.8095H45.5262V37.5665ZM51.9102 39.9271C52.9384 39.9271 53.3502 40.6938 53.4058 41.5881H50.2782C50.3603 40.6408 50.8807 39.9271 51.9102 39.9271ZM52.211 45.9763C53.1988 45.9763 53.9668 45.783 54.6375 45.4117V43.9186C53.9529 44.3013 53.1861 44.6298 52.2943 44.6298C51.1562 44.6298 50.3605 43.9856 50.2784 42.8475H55.1579C55.1579 40.378 54.419 38.583 51.8005 38.583C49.6051 38.583 48.5226 40.2681 48.5226 42.3144C48.5226 44.6298 49.8792 45.9763 52.211 45.9763ZM56.2481 38.7485H57.99V39.7085H58.0178C58.5951 38.8976 59.3783 38.583 60.3357 38.583C62.0107 38.583 62.737 39.7628 62.737 41.3557V45.8096H60.8991V42.039C60.8991 41.1738 60.8852 40.0079 59.7054 40.0079C58.3766 40.0079 58.0886 41.4466 58.0886 42.3548V45.8096H56.2481V38.7485ZM68.9408 42.2584C68.9408 43.2601 68.5442 44.5485 67.3214 44.5485C66.1138 44.5485 65.774 43.2311 65.774 42.2584C65.774 41.3111 66.1025 40.0075 67.2949 40.0075C68.4747 40.0075 68.9408 41.2694 68.9408 42.2584ZM68.9832 45.0134H69.0109V45.8092H70.7933V35.5233H68.9554V39.5718H68.9276C68.3781 38.8972 67.7352 38.5827 66.8156 38.5827C64.6493 38.5827 63.8547 40.3107 63.8547 42.2585C63.8547 44.1911 64.6493 45.976 66.8156 45.976C67.6808 45.976 68.4349 45.6993 68.9832 45.0134Z" fill="#6A2D00"/>
</svg>
