<svg width="72" height="72" viewBox="0 0 72 72" fill="none" xmlns="http://www.w3.org/2000/svg">
<path fill-rule="evenodd" clip-rule="evenodd" d="M44.4615 29.2235C44.4615 27.9995 45.5223 27 46.7936 27C48.1182 27 49.1774 27.9995 49.1774 29.2235C49.1774 30.447 48.1182 31.446 46.7936 31.446C45.5223 31.446 44.4615 30.447 44.4615 29.2235ZM55.2638 30.0339H51.9918V31.4849C51.9918 32.5274 51.3904 33.3216 50.1391 33.3216H49.5383V36.3375H51.6558V41.1684C51.6558 43.4126 53.1709 44.796 55.6479 44.796C56.8025 44.796 57.4043 44.5463 57.5493 44.4792V41.6218C57.3326 41.6667 56.971 41.7352 56.5873 41.7352C55.7924 41.7352 55.2638 41.4851 55.2638 40.5561V36.3375H57.5979V33.3216H55.2638V30.0339ZM17.1688 32.9816C15.5574 32.9816 14.4023 33.4808 13.464 34.7507C12.8631 33.6397 11.6364 32.9816 9.92818 32.9816C8.62922 32.9816 7.08951 33.616 6.48766 34.6141V33.321H2.99951V44.5921H6.65618V38.1065C6.65618 37.0862 7.35381 36.1568 8.62922 36.1568C9.95226 36.1568 10.5526 36.9955 10.5526 38.0611V44.5921H14.1616V38.0838C14.1616 37.0862 14.8597 36.1568 16.1582 36.1568C17.4572 36.1568 18.059 36.9955 18.059 38.0611V44.5921H21.5948V37.2895C21.5948 34.2288 19.4307 32.9816 17.1688 32.9816ZM39.6721 34.8415V33.321H36.1343V44.5921H39.7915V39.6714C39.7915 37.4267 41.1155 36.6102 42.5845 36.6102C42.9457 36.6102 43.3303 36.6329 43.7396 36.7236V33.321C43.4988 33.2534 43.1377 33.2085 42.7771 33.2085C41.8137 33.2085 40.298 33.5716 39.6721 34.8415ZM48.6471 44.5921H44.9915V33.3211H48.6471V44.5921ZM26.4604 37.5934C26.5336 36.7445 27.3122 35.6668 28.8698 35.6668C30.6211 35.6668 31.2537 36.7214 31.3018 37.5934H26.4604ZM28.821 32.9144C25.6822 32.9144 22.7877 35.2538 22.7877 38.923C22.7877 42.7529 25.7554 45 29.0884 45C31.8297 45 33.6532 43.679 34.4261 41.99L31.4015 40.9074C31.0066 41.6003 30.2885 42.0412 29.137 42.0412C27.7018 42.0412 26.4607 41.1242 26.3875 39.8404H34.8057C34.8303 39.7718 34.8794 39.244 34.8794 38.7622C34.8794 35.093 32.5673 32.9144 28.821 32.9144ZM68.9038 36.1563L63.4411 41.5758H68.9996V41.6216V44.5921H58.9689V41.5536L64.1694 36.3374H59.1129V36.2698V33.3211H68.9038V36.1563Z" fill="#EE3B24"/>
</svg>
