<svg width="72" height="72" viewBox="0 0 72 72" fill="none" xmlns="http://www.w3.org/2000/svg">
<path fill-rule="evenodd" clip-rule="evenodd" d="M52.168 40.6823H49.8817L48.347 35.3648H48.322L48.4052 40.6823H46.8107V34.0364H49.1938L50.6135 39.1465H50.6446L50.5644 34.0364H52.168V40.6823ZM45.0835 38.8424C45.0857 38.9669 45.0744 39.2174 45.0683 39.2852C44.9692 40.3878 44.2177 40.9519 42.8396 40.9519C41.4592 40.9519 40.707 40.3878 40.6101 39.2852C40.6071 39.2174 40.5957 38.9669 40.5957 38.8424V34.0339H42.2372V38.9948C42.2372 39.1033 42.241 39.1871 42.2561 39.2438C42.2758 39.3515 42.3795 39.7113 42.8396 39.7113C43.3058 39.7113 43.4079 39.3515 43.4329 39.2438C43.4428 39.1871 43.4458 39.1009 43.4458 38.9948V34.0339H45.0835V38.8424ZM39.1326 39.4494C38.9555 40.7515 37.7477 40.9773 36.894 40.9773C35.4751 40.9773 34.5972 40.339 34.5972 39.0362L34.601 38.5048H36.3174V39.1694C36.3174 39.5276 36.5603 39.7446 36.9288 39.7446C37.2588 39.7446 37.4525 39.6042 37.5222 39.3186C37.5502 39.187 37.5661 38.9915 37.5108 38.8423C37.1915 38.0078 34.9597 37.5993 34.688 36.2446C34.6252 35.9342 34.6244 35.6789 34.6736 35.3446C34.8613 34.1183 35.9829 33.8614 36.8812 33.8614C37.6849 33.8614 38.2729 34.0457 38.6241 34.4167C38.8836 34.6944 39.0168 35.0733 39.0168 35.5465V36.0323H37.4132V35.6031C37.4132 35.2377 37.1952 35.0255 36.8494 35.0255C36.5421 35.0255 36.3537 35.1691 36.2939 35.4547C36.2856 35.5106 36.2689 35.6502 36.3037 35.7882C36.4763 36.535 38.8624 36.9913 39.1281 38.3572C39.1568 38.5327 39.2037 38.9077 39.1326 39.4494ZM31.4708 40.7517L31.4307 34.9196H31.4035L30.375 40.7517H28.7313L27.7073 34.9196H27.6778L27.6407 40.7517H26.0114L26.1529 34.0364H28.7721L29.5335 39.026H29.5721L30.3341 34.0364H32.9526L33.0881 40.7517H31.4708ZM23.0517 40.7517L22.2253 34.8055H22.1942L21.3444 40.7517H19.5932L20.7692 34.0364H23.6253L24.793 40.7517H23.0517ZM65.9625 31.9988C65.1444 27.0634 51.072 25.5196 34.521 28.5569C27.5707 29.8335 21.2992 31.7163 16.4081 33.8338C17.1604 33.8513 17.7189 34.0316 18.0587 34.3851C18.3213 34.6643 18.453 35.0497 18.453 35.5268V36.0118H16.8304V35.5842C16.8304 35.2252 16.6291 34.9994 16.2643 34.9994C15.9578 34.9994 15.7694 35.143 15.7089 35.4318C15.6937 35.5108 15.6877 35.648 15.7179 35.7725C15.8897 36.5225 18.3001 36.9844 18.5642 38.3694C18.599 38.5426 18.6406 38.9255 18.5703 39.4688C18.4189 40.5834 17.4918 41.0142 16.3082 41.0142C14.6592 41.0142 13.9902 40.1909 13.9902 39.0516V38.517H15.7308L15.7323 39.1872C15.7323 39.563 15.9926 39.7712 16.343 39.7712C16.6791 39.7712 16.8751 39.6284 16.9447 39.3348C16.9719 39.2032 16.9901 39.0045 16.9311 38.8553C16.6094 38.004 14.3565 37.6075 14.081 36.2273C14.0174 35.9193 14.0152 35.6552 14.0659 35.3249C14.0939 35.143 14.1468 34.9898 14.2104 34.8486C8.78956 37.5189 5.61787 40.4598 6.03637 42.9976C6.85597 47.9402 20.9307 49.4784 37.4771 46.4451C44.749 45.1055 51.2884 43.1069 56.2658 40.8706C56.1954 40.8738 56.1243 40.8794 56.0531 40.8794C54.9179 40.8794 53.9054 40.4334 53.804 39.2135C53.782 38.9917 53.782 38.8992 53.7805 38.7731L53.782 35.964C53.782 35.8459 53.7941 35.6321 53.8062 35.5212C53.9425 34.3412 54.8264 33.8561 56.0531 33.8561C56.9999 33.8561 58.1623 34.1441 58.2925 35.5228C58.3068 35.6943 58.3053 35.8818 58.3053 35.9408V35.9448V36.2065H56.6676V35.8132C56.6676 35.8028 56.6631 35.6552 56.648 35.5635C56.6192 35.423 56.5064 35.0959 56.0365 35.0959C55.5756 35.0959 55.4575 35.423 55.4265 35.5635C55.4144 35.6409 55.403 35.7549 55.403 35.8754V38.9255C55.403 39.03 55.4083 39.1138 55.4197 39.1784C55.4235 39.2215 55.5082 39.642 56.0456 39.642C56.5791 39.642 56.6608 39.2215 56.6676 39.1784C56.6828 39.0939 56.6866 38.9949 56.6828 38.9255V37.9801H56.035V36.9613H58.3174V38.7731C58.3174 38.8952 58.3174 38.9846 58.2962 39.2135C58.266 39.5303 58.1714 39.8063 58.0215 40.0353C63.3054 37.3937 66.3757 34.4992 65.9625 31.9988Z" fill="#044DA1"/>
</svg>
