<svg width="72" height="72" viewBox="0 0 72 72" fill="none" xmlns="http://www.w3.org/2000/svg">
<path fill-rule="evenodd" clip-rule="evenodd" d="M40.9091 6.00012C40.4487 6.00012 40.0829 6.37165 40.0829 6.83852L40.0959 8.24572C40.0829 12.8257 41.043 17.8167 43.0515 23.0345L44.5179 26.5689C44.6355 26.8484 44.9 27.0555 45.2201 27.0785H45.2854L63.5479 26.9536C64.015 26.9536 64.3873 26.5788 64.3873 26.1185C64.3873 26.0198 64.3775 25.9311 64.3415 25.8489L64.3317 25.839C60.7883 15.5875 51.9085 7.86105 41.0528 6.0067C41.0528 6.0067 41.03 6.0067 41.0234 6.00012H40.9091ZM48.7236 36.5443C48.7236 36.0708 49.0992 35.6861 49.5597 35.6861L65.1541 35.5744C65.6146 35.5744 65.9836 35.9492 65.9836 36.4029C65.9934 36.4062 65.9967 36.4095 65.9999 36.416V36.5476C65.8072 44.1063 62.8615 50.9911 58.1227 56.1958C58.1162 56.1958 58.1162 56.2089 58.1162 56.2089C57.9562 56.3569 57.7439 56.4719 57.5055 56.4719C57.1658 56.4719 56.8621 56.2549 56.7347 55.9525L48.7955 36.8731V36.8402C48.7503 36.746 48.737 36.6455 48.7241 36.548L48.7236 36.5443ZM36.0003 35.7946C34.0833 35.8012 32.434 37.0144 31.7939 38.7077C31.787 38.7129 31.7838 38.7199 31.7808 38.7264C31.7781 38.7322 31.7757 38.7374 31.7711 38.7405L22.5222 61.8936C22.5222 61.9002 22.5092 61.91 22.5092 61.91C22.4634 62.0251 22.4504 62.1172 22.4504 62.2322C22.4504 62.5479 22.6431 62.8372 22.9076 62.9753H22.9141C26.9246 64.9513 31.4347 66.033 36.2028 66.0001C40.9644 65.9574 45.4811 64.8066 49.4589 62.7912C49.465 62.785 49.4711 62.7817 49.4769 62.7786C49.4835 62.7751 49.4896 62.7719 49.4948 62.7649C49.7463 62.6169 49.8998 62.3407 49.8998 62.0383C49.8998 61.9232 49.8769 61.8081 49.841 61.7193V61.7128L40.1153 38.3493C39.3674 36.8336 37.8325 35.7946 36.0461 35.7946H36.0003ZM22.4272 35.8768L6.83932 35.982C6.37884 35.982 6 36.3666 6.01633 36.8368V36.8401C6.01633 36.8401 6 36.8532 6 36.873C6.27106 44.4646 9.32789 51.3362 14.1548 56.4916C14.1548 56.4986 14.1623 56.5057 14.1693 56.5122C14.1753 56.5179 14.1809 56.5232 14.1809 56.5277C14.3344 56.6658 14.5402 56.7678 14.772 56.7678C15.1182 56.7678 15.4154 56.5442 15.5363 56.2483L23.2077 37.0407C23.2534 36.9354 23.2763 36.8204 23.2665 36.7217C23.2665 36.2549 22.8975 35.8768 22.437 35.8768H22.4272ZM30.5268 6.07576H30.5562C30.5954 6.06261 30.6411 6.06261 30.664 6.06261C31.1244 6.06261 31.5131 6.42756 31.5131 6.89772L31.5229 8.31478H31.5131C31.5882 12.8948 30.6999 17.8923 28.7698 23.1397L27.3557 26.6906C27.2446 26.947 27.0225 27.1443 26.7482 27.2002H26.6927H26.6698C26.6372 27.2166 26.6013 27.2166 26.6013 27.2166L8.32889 27.3482C7.85534 27.3482 7.48303 26.9799 7.46997 26.5163C7.46997 26.421 7.49283 26.3289 7.51569 26.25V26.2401C10.9187 15.9525 19.7005 8.07806 30.5268 6.07576Z" fill="url(#paint0_linear_527_1935)"/>
<defs>
<linearGradient id="paint0_linear_527_1935" x1="-49.8892" y1="-78.5712" x2="-48.4771" y2="91.7441" gradientUnits="userSpaceOnUse">
<stop stop-color="#024DA1"/>
<stop offset="1" stop-color="#00ACED"/>
</linearGradient>
</defs>
</svg>
