<svg width="72" height="72" viewBox="0 0 72 72" fill="none" xmlns="http://www.w3.org/2000/svg">
<path fill-rule="evenodd" clip-rule="evenodd" d="M35.9613 5.99976C37.7716 5.99976 39.5377 6.16861 41.2571 6.47847L35.9973 9.41161L30.716 6.46733C32.423 6.16604 34.1733 5.99976 35.9613 5.99976ZM31.8742 10.6264L26.3992 7.5741C25.1224 8.00481 23.8817 8.51567 22.6899 9.10667L20.9739 15.147C24.1457 12.8571 27.8537 11.2735 31.8742 10.6264ZM49.2753 9.13081L50.9939 15.1792C47.828 12.8825 44.1209 11.29 40.1022 10.6372L45.5682 7.58838C46.8436 8.02124 48.0826 8.53638 49.2753 9.13081ZM15.1754 20.9302L9.12996 22.6513C8.53125 23.8419 8.01867 25.08 7.58539 26.3567L10.633 31.8223C11.287 27.8032 12.8808 24.0973 15.1754 20.9302ZM6.47608 30.6665C6.16665 32.3868 5.99951 34.155 5.99951 35.9632C5.99951 37.7503 6.16237 39.5032 6.4658 41.208L9.40708 35.9276L6.47608 30.6665ZM64.3514 26.3997L61.2961 31.8756C60.6507 27.8564 59.0671 24.1488 56.7794 20.9774L62.8171 22.6926C63.4073 23.8857 63.919 25.126 64.3514 26.3997ZM10.6253 40.05L7.57001 45.5255C8.00201 46.8005 8.51415 48.0412 9.10686 49.2339L15.142 50.949C12.856 47.7776 11.2694 44.07 10.6253 40.05ZM18.8055 60.5084C15.9152 58.4834 13.4025 55.9656 11.3801 53.071L17.1606 54.7137L18.8055 60.5084ZM18.853 11.385C15.9597 13.404 13.4401 15.9201 11.4147 18.8087L17.2102 17.1621L18.853 11.385ZM53.0682 60.5425C55.9602 58.5226 58.4811 56.0052 60.5074 53.1179L54.7135 54.7645L53.0682 60.5425ZM62.7953 49.2758L56.7443 50.9939C59.0418 47.8302 60.6348 44.1235 61.2871 40.1043L64.3355 45.5708C63.9035 46.8483 63.3888 48.0848 62.7953 49.2758ZM20.9316 56.7478L22.6472 62.7971C23.8394 63.3898 25.0784 63.9045 26.3526 64.3382L31.8207 61.2889C27.8012 60.6367 24.0949 59.0424 20.9316 56.7478ZM45.5244 64.3531L40.0494 61.2996C44.0686 60.6537 47.7796 59.0689 50.9506 56.7803L49.2329 62.8184C48.0384 63.4107 46.8003 63.9233 45.5244 64.3531ZM65.4472 41.2598C65.7532 39.5399 65.925 37.7716 65.925 35.9635C65.925 34.175 65.757 32.4248 65.457 30.7212L62.5132 35.9973L65.4472 41.2598ZM35.9605 65.9268C34.1528 65.9268 32.3853 65.7579 30.6616 65.448L35.9228 62.514L41.2023 65.4579C39.4979 65.7605 37.751 65.9268 35.9605 65.9268ZM26.1029 33.3955C27.3539 34.1416 28.9958 34.5213 30.9788 34.5213H34.5612V31.3478H31.7579C30.7795 31.3478 29.9626 31.2355 29.3279 31.0135C28.6743 30.782 28.076 30.3848 27.5493 29.8281C26.6536 28.8856 26.1985 27.7409 26.1985 26.4308C26.1985 25.0392 26.6712 23.8503 27.6042 22.8998C28.0992 22.3958 28.6675 22.0255 29.2953 21.8009C29.9065 21.5836 30.6663 21.4735 31.5565 21.4735H34.5612V18.2982H31.154C30.1036 18.2982 29.1488 18.3899 28.325 18.5763C26.9485 18.8755 25.7489 19.5166 24.7546 20.4801C24.0698 21.1482 23.5079 21.9402 23.0922 22.8312C22.5363 24.0029 22.2543 25.2265 22.2543 26.4668C22.2543 27.4131 22.424 28.3521 22.7549 29.2615C23.4008 31.0503 24.5283 32.4419 26.1029 33.3955ZM31.9544 37.6822C32.5861 37.8605 33.151 38.1618 33.6322 38.5839C34.1474 39.0309 34.5562 39.5924 34.8494 40.2588C35.143 40.9282 35.2921 41.6255 35.2921 42.3254C35.2921 43.2712 35.0311 44.1584 34.522 44.9679C34.0317 45.7552 33.4111 46.3248 32.6864 46.6638C31.9424 47.0079 30.9395 47.1841 29.7048 47.1841H26.6452V53.6285H22.8811V44.0092H28.825C29.7357 44.0092 30.3198 43.8969 30.6798 43.6415C31.1191 43.3179 31.3531 42.8439 31.3531 42.2748C31.3531 41.5145 30.9738 41.1249 30.6584 40.9308C30.2692 40.6951 29.6812 40.5785 28.8644 40.5785H22.8811V37.4045H29.3281C30.4094 37.4045 31.2944 37.4971 31.9544 37.6822ZM37.7934 40.579H49.4771V37.405H37.7934V40.579ZM49.4771 53.6288H37.7934V44.0095H49.4771V47.1844H41.5601V50.4531H49.4771V53.6288Z" fill="#1D9ADD"/>
<path fill-rule="evenodd" clip-rule="evenodd" d="M53.1152 11.4177C56.0063 13.4427 58.5195 15.9623 60.5372 18.8547L54.7617 17.2142L53.1152 11.4177ZM46.5724 31.3476L41.9164 18.2985H45.33L51.0617 34.5216H36.21L39.3822 24.9066H42.6831L40.8462 31.3476H46.5724Z" fill="#F73449"/>
</svg>
