<svg width="72" height="72" viewBox="0 0 72 72" fill="none" xmlns="http://www.w3.org/2000/svg">
<path fill-rule="evenodd" clip-rule="evenodd" d="M51.1823 36.6859C51.1823 39.8138 48.7783 42.3496 45.6503 42.3496C42.5224 42.3496 40.1184 39.8138 40.1184 36.6859C40.1184 33.5579 42.5224 31.0222 45.6503 31.0222C48.7783 31.0222 51.1823 33.5579 51.1823 36.6859ZM53.6849 36.6859C53.6849 41.1232 50.0877 44.7204 45.6503 44.7204C41.213 44.7204 37.6158 41.1232 37.6158 36.6859C37.6158 32.2485 41.213 28.6513 45.6503 28.6513C50.0877 28.6513 53.6849 32.2485 53.6849 36.6859ZM55.3725 29.6761C55.2887 29.5907 55.349 29.4416 55.4687 29.4416H59.2169C59.3624 29.4416 59.4803 29.5596 59.4803 29.7051V42.6131H67.7782V44.3254H56.8459C56.7004 44.3254 56.5825 44.2074 56.5825 44.0619V42.6131H56.5826V31.7466C56.5826 31.3071 56.4108 31.0435 56.1913 30.7068C56.1477 30.6398 56.1022 30.57 56.0558 30.4953C55.8818 30.2156 55.5828 29.8904 55.3725 29.6761ZM4.91462 29.4416C4.79199 29.4416 4.73192 29.5984 4.82065 29.683C5.13908 29.9868 5.65731 30.5287 5.87274 31.0222C6.19436 31.759 6.13617 33.0638 6.13617 33.0638V44.3253H13.0512C17.1612 44.3253 20.493 40.9935 20.493 36.8835C20.493 32.4052 16.766 29.4416 12.656 29.4416H4.91462ZM8.90216 31.2856V42.4813H12.656C15.1586 42.4813 17.5953 40.308 17.5953 36.8835C17.5953 34.0828 15.4566 31.2856 12.656 31.2856H8.90216ZM33.7961 44.3911L32.3172 41.23H24.7853L23.3248 44.3911H21.0198L26.246 33.2613C26.246 33.2613 27.2104 31.8783 27.2104 30.8904C27.2104 30.2961 26.7813 29.821 26.4395 29.5367C26.335 29.4499 26.3974 29.244 26.5333 29.244H29.761C29.8121 29.244 29.8585 29.2735 29.8802 29.3197L36.9572 44.3911H33.7961ZM28.5275 33.1296L31.4545 39.386H25.6372L28.5275 33.1296Z" fill="#010101"/>
</svg>
