<svg width="72" height="72" viewBox="0 0 72 72" fill="none" xmlns="http://www.w3.org/2000/svg">
<path fill-rule="evenodd" clip-rule="evenodd" d="M16.2339 37.3275C16.2507 37.1347 16.2598 36.9397 16.2598 36.7423C16.2598 33.0806 13.2914 30.1121 9.62968 30.1121C5.96791 30.1121 2.99951 33.0806 2.99951 36.7423C2.99951 40.4039 5.96791 43.3725 9.62968 43.3725C11.7966 43.3725 13.7206 42.3327 14.9305 40.7252L13.329 38.95C12.5986 40.2509 11.2435 41.1241 9.64852 41.1241C7.24777 41.1241 5.30163 39.147 5.30163 36.7082C5.30163 34.2691 7.24777 32.292 9.64852 32.292C11.5629 32.292 13.1316 33.5498 13.689 35.2958H8.94394C8.94394 35.2958 7.80803 35.2958 7.80803 36.5374C7.80803 37.0105 7.88597 37.3275 7.88597 37.3275H13.8666H16.2339ZM24.7685 43.5942H22.0503V40.3238H24.5451C25.4157 40.3238 26.1215 40.9173 26.1215 41.9678C26.1215 42.7133 25.6443 43.5942 24.7685 43.5942ZM22.0503 35.4602H24.3889C25.2049 35.4602 25.8665 35.9835 25.8665 36.9378C25.8665 37.615 25.5314 38.4154 24.5982 38.4154H22.0503V35.4602ZM26.7019 39.1964C27.6826 38.7184 28.3582 37.7122 28.3582 36.5478C28.3582 34.6496 26.6118 33.6029 24.8548 33.6029H19.5583V45.4802H25.3945C27.2727 45.4802 28.8254 44.3442 28.8254 42.2835C28.8254 40.5787 27.9208 39.5233 26.7019 39.1964ZM33.3764 35.4192V38.3744H38.1302V40.3138H33.3764V43.5483H38.8457V45.4803H30.9445V33.5772H38.898L38.5839 35.4192H33.3764ZM60.0723 33.6132H50.1753V35.5834H53.8557C53.3158 35.9836 53.3153 36.7839 53.3153 36.7839V45.4803H55.8703V36.8455C55.8703 36.022 56.6015 35.5834 56.9221 35.5834H59.4874L60.0723 33.6132ZM45.3341 33.3103C46.5998 33.2741 48.4345 33.6901 48.4895 33.7266C48.4981 33.7324 48.5045 33.7332 48.5089 33.7338C48.5175 33.7349 48.519 33.7351 48.5159 33.767C48.5057 33.8728 48.1671 34.5751 48.1671 34.5751C47.9439 34.9984 47.713 35.2164 47.713 35.2164C47.4359 35.5037 47.0767 35.3703 47.0767 35.3703C46.2456 35.2266 45.7736 35.2574 45.7736 35.2574C44.4909 35.2472 44.1113 35.7397 44.1113 35.7397C43.6701 36.0681 43.6495 36.7658 43.6495 36.7658C43.6598 37.7509 44.963 38.0383 44.963 38.0383C46.0609 38.4077 46.9947 38.7155 46.9947 38.7155C48.3492 39.2491 49.1188 40.2752 49.1188 41.722C49.1188 45.0158 45.5735 45.483 44.2858 45.4776C43.7238 45.4752 42.4308 45.3333 42.2515 45.3083C42.0721 45.2833 40.7486 45.0379 40.7045 45.0158C40.6225 44.9748 40.6533 44.9235 40.6533 44.9235C40.6533 44.9235 40.7836 44.4925 40.9581 44.0103C41.1484 43.4754 41.4639 43.2304 41.4639 43.2304C41.6384 43.0149 42.0386 43.1792 42.0386 43.1792C42.6747 43.4613 43.906 43.4562 43.906 43.4562C46.4611 43.3997 46.3149 41.9187 46.3149 41.9187C46.4202 40.8503 44.8225 40.4288 44.8225 40.4288C43.9046 40.1578 43.1069 39.887 43.1069 39.887C40.6086 38.8787 40.8368 36.862 40.8368 36.862C40.9098 33.9183 43.8035 33.354 45.3341 33.3103Z" fill="#005D94"/>
<path fill-rule="evenodd" clip-rule="evenodd" d="M64.7379 33.3181C63.5937 33.3181 62.6662 32.3907 62.6662 31.2466C62.6662 30.1026 63.5937 29.1752 64.7379 29.1752C65.8819 29.1752 66.8093 30.1026 66.8093 31.2466C66.8093 32.3907 65.8819 33.3181 64.7379 33.3181ZM64.7374 26.9997C62.392 26.9997 60.4907 28.9011 60.4907 31.2465C60.4907 33.5918 62.392 35.493 64.7374 35.493C67.0827 35.493 68.984 33.5918 68.984 31.2465C68.984 28.9011 67.0827 26.9997 64.7374 26.9997Z" fill="#F29600"/>
</svg>
