<svg xmlns="http://www.w3.org/2000/svg" width="520" height="180" viewBox="0 0 520 180" role="img" aria-labelledby="title desc">
  <title id="title">Navigation icon draft</title>
  <desc id="desc">Flat single-color SVG drafts for Home, Records, Analysis, and Settings navigation icons.</desc>
  <defs>
    <symbol id="nav-home" viewBox="0 0 24 24">
      <g transform="translate(1.2 1.2) scale(.9)">
        <path fill="currentColor" fill-rule="evenodd" clip-rule="evenodd" d="M10.058 1.713a3 3 0 0 1 3.884 0l7 5.999A3 3 0 0 1 22 10v9a3 3 0 0 1-3 3H5a3 3 0 0 1-3-3v-9a3 3 0 0 1 1.058-2.288l7-5.999ZM8.25 13.35c0-.55.45-1 1-1h5.5c.55 0 1 .45 1 1V22h-7.5v-8.65Z"/>
        <path fill="currentColor" d="M9.75 13.85h4.5V22h-4.5v-8.15Z"/>
      </g>
    </symbol>

    <symbol id="nav-records" viewBox="0 0 24 24">
      <path fill="currentColor" fill-rule="evenodd" clip-rule="evenodd" d="M6.5 3.4c-1.21 0-2.2.99-2.2 2.2v12.8c0 1.21.99 2.2 2.2 2.2h11c1.21 0 2.2-.99 2.2-2.2V9.18c0-.58-.23-1.14-.64-1.55l-3.59-3.59a2.2 2.2 0 0 0-1.55-.64H6.5Zm7.22 1.78v2.96c0 .8.64 1.44 1.44 1.44h2.96l-4.4-4.4ZM7.35 12.7c0-.5.4-.9.9-.9h7.5a.9.9 0 1 1 0 1.8h-7.5a.9.9 0 0 1-.9-.9Zm0 3.55c0-.5.4-.9.9-.9h5.8a.9.9 0 1 1 0 1.8h-5.8a.9.9 0 0 1-.9-.9Z"/>
    </symbol>

    <symbol id="nav-analysis" viewBox="0 0 24 24">
      <path fill="currentColor" d="M5.2 13.25c0-.66.54-1.2 1.2-1.2h1.8c.66 0 1.2.54 1.2 1.2v5.95c0 .66-.54 1.2-1.2 1.2H6.4c-.66 0-1.2-.54-1.2-1.2v-5.95Z"/>
      <path fill="currentColor" d="M10.25 8.6c0-.66.54-1.2 1.2-1.2h1.8c.66 0 1.2.54 1.2 1.2v10.6c0 .66-.54 1.2-1.2 1.2h-1.8c-.66 0-1.2-.54-1.2-1.2V8.6Z"/>
      <path fill="currentColor" d="M15.3 4.8c0-.66.54-1.2 1.2-1.2h1.8c.66 0 1.2.54 1.2 1.2v14.4c0 .66-.54 1.2-1.2 1.2h-1.8c-.66 0-1.2-.54-1.2-1.2V4.8Z"/>
    </symbol>

    <symbol id="nav-settings" viewBox="0 0 24 24">
      <path fill="currentColor" fill-rule="evenodd" clip-rule="evenodd" d="M9.67 4.14a2.34 2.34 0 0 1 4.66 0 2.34 2.34 0 0 0 3.32 1.91 2.34 2.34 0 0 1 2.33 4.04 2.34 2.34 0 0 0 0 3.82 2.34 2.34 0 0 1-2.33 4.04 2.34 2.34 0 0 0-3.32 1.91 2.34 2.34 0 0 1-4.66 0 2.34 2.34 0 0 0-3.32-1.91 2.34 2.34 0 0 1-2.33-4.04 2.34 2.34 0 0 0 0-3.82 2.34 2.34 0 0 1 2.33-4.04 2.34 2.34 0 0 0 3.32-1.91ZM12 15a3 3 0 1 0 0-6 3 3 0 0 0 0 6Z"/>
    </symbol>
  </defs>

  <rect width="520" height="180" rx="16" fill="#f8fafc"/>
  <g transform="translate(32 28)">
    <text x="0" y="0" fill="#111827" font-family="Arial, sans-serif" font-size="16" font-weight="700">Navigation Icon Draft</text>
    <text x="0" y="24" fill="#64748b" font-family="Arial, sans-serif" font-size="12">Flat fill icons. Each symbol uses currentColor for active/inactive state colors.</text>
  </g>

  <g transform="translate(44 78)" color="#111827">
    <use href="#nav-home" width="36" height="36"/>
    <text x="18" y="64" text-anchor="middle" fill="currentColor" font-family="Arial, sans-serif" font-size="12" font-weight="700">Home</text>
  </g>
  <g transform="translate(160 78)" color="#111827">
    <use href="#nav-records" width="36" height="36"/>
    <text x="18" y="64" text-anchor="middle" fill="currentColor" font-family="Arial, sans-serif" font-size="12" font-weight="700">Records</text>
  </g>
  <g transform="translate(284 78)" color="#111827">
    <use href="#nav-analysis" width="36" height="36"/>
    <text x="18" y="64" text-anchor="middle" fill="currentColor" font-family="Arial, sans-serif" font-size="12" font-weight="700">Analysis</text>
  </g>
  <g transform="translate(412 78)" color="#111827">
    <use href="#nav-settings" width="36" height="36"/>
    <text x="18" y="64" text-anchor="middle" fill="currentColor" font-family="Arial, sans-serif" font-size="12" font-weight="700">Settings</text>
  </g>

  <g transform="translate(44 150)" color="#94a3b8">
    <use href="#nav-home" width="18" height="18"/>
  </g>
  <g transform="translate(160 150)" color="#94a3b8">
    <use href="#nav-records" width="18" height="18"/>
  </g>
  <g transform="translate(284 150)" color="#94a3b8">
    <use href="#nav-analysis" width="18" height="18"/>
  </g>
  <g transform="translate(412 150)" color="#94a3b8">
    <use href="#nav-settings" width="18" height="18"/>
  </g>
</svg>
